<svg xmlns="http://www.w3.org/2000/svg" viewBox="0 0 400 560" role="img" aria-labelledby="title desc"><title id="title">กระโปรงพลีตยาว สีครีม · front</title><desc id="desc">Original Closet demo garment illustration. Not a photograph or verified condition. </desc><defs>
 <linearGradient id="cloth" x1="0" y1="0" x2="1" y2=".4"><stop stop-color="#d9c9ab"/><stop offset=".26" stop-color="#d9c9ab"/><stop offset=".49" stop-color="#fff" stop-opacity=".8"/><stop offset=".5" stop-color="#d9c9ab"/><stop offset="1" stop-color="#d9c9ab"/></linearGradient>
 <linearGradient id="volume"><stop stop-color="#000" stop-opacity=".11"/><stop offset=".26" stop-color="#fff" stop-opacity=".11"/><stop offset=".58" stop-color="#fff" stop-opacity=".02"/><stop offset=".84" stop-color="#000" stop-opacity=".13"/><stop offset="1" stop-color="#000" stop-opacity=".05"/></linearGradient>
 <linearGradient id="sheen" x1="0" y1="0" x2="1" y2="1"><stop stop-color="#fff" stop-opacity=".12"/><stop offset=".4" stop-color="#fff" stop-opacity="0"/><stop offset=".7" stop-color="#000" stop-opacity=".12"/><stop offset="1" stop-color="#fff" stop-opacity=".09"/></linearGradient>
 <pattern id="weave" width="4" height="4" patternUnits="userSpaceOnUse"><path d="M0 1h4M1 0v4" stroke="#fff" stroke-opacity=".12" stroke-width=".45"/><path d="M0 3h4M3 0v4" stroke="#171717" stroke-opacity=".1" stroke-width=".5"/></pattern>
 <pattern id="rib" width="5" height="5" patternUnits="userSpaceOnUse"><path d="M1 0v5" stroke="#fff" stroke-opacity=".25" stroke-width=".9"/><path d="M3 0v5" stroke="#111" stroke-opacity=".12" stroke-width=".75"/></pattern>
 <filter id="shadow" x="-25%" y="-15%" width="150%" height="140%"><feDropShadow dx="0" dy="5" stdDeviation="5" flood-color="#262019" flood-opacity=".16"/></filter>
 </defs><g filter="url(#shadow)"><path d="M138 266Q200 274 262 266L292 475Q247 488 200 482Q153 488 108 475Z" fill="url(#cloth)" stroke="#292821" stroke-opacity=".35" stroke-width="1"/><path d="M138 266Q200 274 262 266L292 475Q247 488 200 482Q153 488 108 475Z" fill="url(#volume)"/><path d="M138 266Q200 274 262 266L292 475Q247 488 200 482Q153 488 108 475Z" fill="url(#weave)"/></g><path d="M138 266Q200 274 262 266L264 283Q200 291 136 283Z" fill="url(#cloth)" stroke="#383229" stroke-opacity=".4" stroke-width="1"/><path d="M150.4 287 123.4 477 133.4 479 153.4 287Z" fill="#171713" opacity=".08"/><path d="M153.4 287 133.4 474" fill="none" stroke="#fff" stroke-opacity=".3" stroke-width="1.15" /><path d="M162.8 287 141.8 477 151.8 479 165.8 287Z" fill="#171713" opacity=".08"/><path d="M165.8 287 151.8 474" fill="none" stroke="#fff" stroke-opacity=".3" stroke-width="1.15" /><path d="M175.2 287 160.2 477 170.2 479 178.2 287Z" fill="#171713" opacity=".08"/><path d="M178.2 287 170.2 474" fill="none" stroke="#fff" stroke-opacity=".3" stroke-width="1.15" /><path d="M187.6 287 178.6 477 188.6 479 190.6 287Z" fill="#171713" opacity=".08"/><path d="M190.6 287 188.6 474" fill="none" stroke="#fff" stroke-opacity=".3" stroke-width="1.15" /><path d="M200 287 197 477 207 479 203 287Z" fill="#171713" opacity=".08"/><path d="M203 287 207 474" fill="none" stroke="#fff" stroke-opacity=".3" stroke-width="1.15" /><path d="M212.4 287 215.4 477 225.4 479 215.4 287Z" fill="#171713" opacity=".08"/><path d="M215.4 287 225.4 474" fill="none" stroke="#fff" stroke-opacity=".3" stroke-width="1.15" /><path d="M224.8 287 233.8 477 243.8 479 227.8 287Z" fill="#171713" opacity=".08"/><path d="M227.8 287 243.8 474" fill="none" stroke="#fff" stroke-opacity=".3" stroke-width="1.15" /><path d="M237.2 287 252.2 477 262.2 479 240.2 287Z" fill="#171713" opacity=".08"/><path d="M240.2 287 262.2 474" fill="none" stroke="#fff" stroke-opacity=".3" stroke-width="1.15" /><path d="M249.6 287 270.6 477 280.6 479 252.6 287Z" fill="#171713" opacity=".08"/><path d="M252.6 287 280.6 474" fill="none" stroke="#fff" stroke-opacity=".3" stroke-width="1.15" /><path d="M137 280Q200 288 263 280M114 473Q200 488 286 473" fill="none" stroke="#514532" stroke-opacity=".45" stroke-width=".8" stroke-dasharray="2 2"/><circle cx="255" cy="276" r="2.5" fill="#c2b39a" stroke="#514a41" stroke-width=".65"/><path d="M254.3 276h1.4" stroke="#514a41" stroke-width=".6"/></svg>